<mxfile host="app.diagrams.net" modified="2023-10-12T01:19:10.582Z" agent="Mozilla/5.0 (Macintosh; Intel Mac OS X 10_15_7) AppleWebKit/537.36 (KHTML, like Gecko) Chrome/117.0.0.0 Safari/537.36" etag="qHYyuq-pUNIDsCB56Y1C" version="22.0.4" type="device">
  <diagram name="페이지-1" id="bu7sChS8rG9kGm4ZpVhi">
    <mxGraphModel dx="3560" dy="1215" grid="1" gridSize="10" guides="1" tooltips="1" connect="1" arrows="1" fold="1" page="1" pageScale="1" pageWidth="827" pageHeight="1169" math="0" shadow="0">
      <root>
        <mxCell id="0" />
        <mxCell id="1" parent="0" />
        <mxCell id="YbQ0IUG2OVHfiooYPMog-1" value="" style="rounded=0;whiteSpace=wrap;html=1;" parent="1" vertex="1">
          <mxGeometry x="24" y="1010" width="776" height="138.29" as="geometry" />
        </mxCell>
        <mxCell id="YbQ0IUG2OVHfiooYPMog-14" value="컴퓨팅 인프라" style="text;strokeColor=none;fillColor=none;html=1;fontSize=24;fontStyle=1;verticalAlign=middle;align=center;" parent="1" vertex="1">
          <mxGeometry x="364" y="1009" width="100" height="40" as="geometry" />
        </mxCell>
        <mxCell id="YbQ0IUG2OVHfiooYPMog-21" value="" style="shape=image;verticalLabelPosition=bottom;labelBackgroundColor=default;verticalAlign=top;aspect=fixed;imageAspect=0;image=https://images.velog.io/images/zayson/post/06e00e5c-9482-4521-a5d4-36868ea0b086/OCI.png;" parent="1" vertex="1">
          <mxGeometry x="670" y="637.3800000000001" width="180.57" height="122.12" as="geometry" />
        </mxCell>
        <mxCell id="YbQ0IUG2OVHfiooYPMog-22" value="" style="rounded=0;whiteSpace=wrap;html=1;" parent="1" vertex="1">
          <mxGeometry x="194" y="850" width="440" height="150" as="geometry" />
        </mxCell>
        <mxCell id="YbQ0IUG2OVHfiooYPMog-26" value="" style="rounded=0;whiteSpace=wrap;html=1;" parent="1" vertex="1">
          <mxGeometry x="191.52" y="690" width="440" height="150" as="geometry" />
        </mxCell>
        <mxCell id="YbQ0IUG2OVHfiooYPMog-27" value="사용 언어" style="text;strokeColor=none;fillColor=none;html=1;fontSize=24;fontStyle=1;verticalAlign=middle;align=center;" parent="1" vertex="1">
          <mxGeometry x="361.52000000000004" y="850" width="100" height="40" as="geometry" />
        </mxCell>
        <mxCell id="YbQ0IUG2OVHfiooYPMog-28" value="" style="shape=image;verticalLabelPosition=bottom;labelBackgroundColor=default;verticalAlign=top;aspect=fixed;imageAspect=0;image=https://i.namu.wiki/i/MuCO_ocla-FyadGnRZytkRLggQOcqxv_hXNjN7aYXDOPivIChJNdiRXp6vwSXbM6GcUL3pVTL-5U5TKQ0f1YhA.svg;" parent="1" vertex="1">
          <mxGeometry x="207.14" y="885" width="53.75" height="100" as="geometry" />
        </mxCell>
        <mxCell id="YbQ0IUG2OVHfiooYPMog-32" value="서버 인프라" style="text;strokeColor=none;fillColor=none;html=1;fontSize=24;fontStyle=1;verticalAlign=middle;align=center;" parent="1" vertex="1">
          <mxGeometry x="361.52000000000004" y="695" width="100" height="40" as="geometry" />
        </mxCell>
        <mxCell id="YbQ0IUG2OVHfiooYPMog-36" value="" style="shape=image;verticalLabelPosition=bottom;labelBackgroundColor=default;verticalAlign=top;aspect=fixed;imageAspect=0;image=https://upload.wikimedia.org/wikipedia/commons/thumb/f/fe/Apache_Tomcat_logo.svg/1200px-Apache_Tomcat_logo.svg.png;" parent="1" vertex="1">
          <mxGeometry x="364" y="732.5" width="118.73" height="84" as="geometry" />
        </mxCell>
        <mxCell id="YbQ0IUG2OVHfiooYPMog-37" value="" style="shape=image;verticalLabelPosition=bottom;labelBackgroundColor=default;verticalAlign=top;aspect=fixed;imageAspect=0;image=https://www.nginx.com/wp-content/uploads/2018/08/NGINX-logo-rgb-large.png;" parent="1" vertex="1">
          <mxGeometry x="203.7" y="748" width="157.82" height="53" as="geometry" />
        </mxCell>
        <mxCell id="YbQ0IUG2OVHfiooYPMog-38" value="" style="rounded=0;whiteSpace=wrap;html=1;" parent="1" vertex="1">
          <mxGeometry x="191.52" y="440" width="440" height="240" as="geometry" />
        </mxCell>
        <mxCell id="YbQ0IUG2OVHfiooYPMog-39" value="비즈니스 계층" style="text;strokeColor=none;fillColor=none;html=1;fontSize=24;fontStyle=1;verticalAlign=middle;align=center;" parent="1" vertex="1">
          <mxGeometry x="361.52000000000004" y="444" width="100" height="40" as="geometry" />
        </mxCell>
        <mxCell id="YbQ0IUG2OVHfiooYPMog-40" value="" style="shape=image;verticalLabelPosition=bottom;labelBackgroundColor=default;verticalAlign=top;aspect=fixed;imageAspect=0;image=https://upload.wikimedia.org/wikipedia/commons/thumb/4/44/Spring_Framework_Logo_2018.svg/1280px-Spring_Framework_Logo_2018.svg.png;" parent="1" vertex="1">
          <mxGeometry x="207.14" y="487.64" width="194.77" height="50" as="geometry" />
        </mxCell>
        <mxCell id="YbQ0IUG2OVHfiooYPMog-42" value="" style="shape=image;verticalLabelPosition=bottom;labelBackgroundColor=default;verticalAlign=top;aspect=fixed;imageAspect=0;image=https://velog.velcdn.com/images/migdracios/post/63f21faa-99f2-46f2-bb8c-35ac51f578d5/image.png;" parent="1" vertex="1">
          <mxGeometry x="430.34000000000003" y="580" width="125.14" height="70" as="geometry" />
        </mxCell>
        <mxCell id="YbQ0IUG2OVHfiooYPMog-45" value="" style="rounded=0;whiteSpace=wrap;html=1;" parent="1" vertex="1">
          <mxGeometry x="191.52" y="280" width="440" height="150" as="geometry" />
        </mxCell>
        <mxCell id="YbQ0IUG2OVHfiooYPMog-46" value="표현 계층" style="text;strokeColor=none;fillColor=none;html=1;fontSize=24;fontStyle=1;verticalAlign=middle;align=center;" parent="1" vertex="1">
          <mxGeometry x="361.52000000000004" y="285" width="100" height="40" as="geometry" />
        </mxCell>
        <mxCell id="YbQ0IUG2OVHfiooYPMog-47" value="" style="shape=image;verticalLabelPosition=bottom;labelBackgroundColor=default;verticalAlign=top;aspect=fixed;imageAspect=0;image=https://linked2ev.github.io/assets//img/jsp-logo.png;" parent="1" vertex="1">
          <mxGeometry x="207.14" y="325" width="48.33" height="88.5" as="geometry" />
        </mxCell>
        <mxCell id="YbQ0IUG2OVHfiooYPMog-49" value="" style="shape=image;verticalLabelPosition=bottom;labelBackgroundColor=default;verticalAlign=top;aspect=fixed;imageAspect=0;image=https://images.velog.io/images/taeha7b/post/ad540966-185b-4c21-975e-7e14b93d0365/html_css.png;" parent="1" vertex="1">
          <mxGeometry x="272.15999999999997" y="322" width="150.46" height="91.5" as="geometry" />
        </mxCell>
        <mxCell id="YbQ0IUG2OVHfiooYPMog-53" value="" style="shape=image;verticalLabelPosition=bottom;labelBackgroundColor=default;verticalAlign=top;aspect=fixed;imageAspect=0;image=https://images.velog.io/images/jennyfromdeblock/post/337e4e42-11e7-4f32-b85f-b9a085214eb8/mybatis.png;" parent="1" vertex="1">
          <mxGeometry x="271.27" y="550" width="120" height="120" as="geometry" />
        </mxCell>
        <mxCell id="YbQ0IUG2OVHfiooYPMog-55" value="" style="dashed=0;outlineConnect=0;html=1;align=center;labelPosition=center;verticalLabelPosition=bottom;verticalAlign=top;shape=mxgraph.weblogos.oracle;fillColor=#FF0000;strokeColor=none" parent="1" vertex="1">
          <mxGeometry x="496.77" y="759.5" width="120" height="30" as="geometry" />
        </mxCell>
        <mxCell id="YbQ0IUG2OVHfiooYPMog-56" value="" style="rounded=0;whiteSpace=wrap;html=1;" parent="1" vertex="1">
          <mxGeometry x="23.04" y="130" width="776.96" height="132.75" as="geometry" />
        </mxCell>
        <mxCell id="YbQ0IUG2OVHfiooYPMog-58" value="사용 외부 API" style="text;strokeColor=none;fillColor=none;html=1;fontSize=24;fontStyle=1;verticalAlign=middle;align=center;" parent="1" vertex="1">
          <mxGeometry x="364" y="137.75" width="100" height="40" as="geometry" />
        </mxCell>
        <mxCell id="YbQ0IUG2OVHfiooYPMog-59" value="" style="shape=image;verticalLabelPosition=bottom;labelBackgroundColor=default;verticalAlign=top;aspect=fixed;imageAspect=0;image=https://developers.kakao.com/tool/resource/static/img/logo/raster/kakaodev_logo_black.png;" parent="1" vertex="1">
          <mxGeometry x="40" y="178.87" width="270.97" height="35" as="geometry" />
        </mxCell>
        <mxCell id="YbQ0IUG2OVHfiooYPMog-64" value="" style="shape=image;verticalLabelPosition=bottom;labelBackgroundColor=default;verticalAlign=top;aspect=fixed;imageAspect=0;image=https://upload.wikimedia.org/wikipedia/commons/thumb/f/f8/Python_logo_and_wordmark.svg/1280px-Python_logo_and_wordmark.svg.png;" parent="1" vertex="1">
          <mxGeometry x="317.81" y="916.75" width="146.19" height="43.25" as="geometry" />
        </mxCell>
        <mxCell id="XZJLIwxgcNW-A1yOsdWD-1" value="" style="shape=image;verticalLabelPosition=bottom;labelBackgroundColor=default;verticalAlign=top;aspect=fixed;imageAspect=0;image=https://1000logos.net/wp-content/uploads/2020/06/Microsoft-Azure-Logo-2017.png;" parent="1" vertex="1">
          <mxGeometry x="320" y="1026.76" width="186.26" height="104.77" as="geometry" />
        </mxCell>
        <mxCell id="XZJLIwxgcNW-A1yOsdWD-3" value="" style="shape=image;verticalLabelPosition=bottom;labelBackgroundColor=default;verticalAlign=top;aspect=fixed;imageAspect=0;image=data:image/png,iVBORw0KGgoAAAANSUhEUgAAAOEAAADhCAMAAAAJbSJIAAAAjVBMVEUAxzz///8Awi/e8+MAwinE68zq+O4TxkUAxC8AxzjI69AAxjTF6cwAxC7E6M1ByGCV3KZx1Yi05L/V79uR2qG758ZVzG+t4biI1ZaA1ZGp4LT4/PnM69Mqx08AwSDm9epNy2d204vZ8N5j0Hw3yFcAuxowyVeg3awVw0YIxUBpz310041QzG1GymWE1pTVxEn7AAAExUlEQVR4nO3a23qiOgAFYNQUSQOi4qEtIKCOitvO+z/eToBKEqgHClPbb/03rREiS0IOiGEAAAAAAAAAAAAAAAAAAAAAAAAAAAAAAAAAAAAAAAAAAAAAAAAAPBjWb+C7D/oeztvgfsGQfvdx34489e5nIuEjQUIkfHw/IiHlGu/8ExKmrutuG39iawkpIYRpZUwrE6+rVkSvyrIsaTfq8o/0Gs8y2kpIF2vPe1EjsmTtrRMmvY7qJxBqRLqbzWaT8hMeJCGb8PI3RymzZrxsbJXbvHxS3UqtasHLgnK3R084a5bQ/hEJnbqE6+VU92apVT1ywpWyAiEvNQlnq0pXY2lVdZlwMC94RYH/UfB8S0Iz8GRBVJNw7Oi7VqrqMuH5Cx5GeUFkFD369paEdR4s4bnjYxs1C33/hwkTvtmzntBpOrH5JKFBpg0SDrQuxKtJWHMdaiO+s+ebrbXxcH0Iw13YZkJqmPcnfFs5slVdTxMFVal6SGvxGeU0LUuYidpMaLBTg4TNxsOeUp2VXyBe/6Owq4QG2d+fkFBZ7XhY5yBVRw9+Xvj8EbFMaLab0OhH9yZcpgdZqic8BqOcLS4Bzy5ePUutlB1ELx6JlN6QlQmjSZIkx5YTsvjehL6p8tWE5dpiNefvbFbVnobtREDfTbJG6VrnhB5hXMsJDWfc7mhRssSnHqsH7Jyy/u3oOIn4dvwJMboaD/NYxuD2hMknCYsqqbokVM+hIDopMsmuwQ3/34qzf/f8YuwmYZ6AxTcnpLtkUidxs01pHNgycarWI6lgNE8pGYvK/fesR2b5tGrd1Tl08xZk/RfemNCgrF7xXW0+OcVn/pAGWd1h0XhpX5zoGesmoTU/Ff3Yx/FfTXjZLQkdm/8J0nKk52uTJenoHDpPg1QJcTGhuK9yGeWt9Pky3kr7Xm/Zl2t23sVRdJNw3tsr85NLCWk4ty8aBTuq9TQ5bXJKd699tXHk13BHCXux3JlfTLj1rzVBV560WCTdxovF4j3sa3fnKMvedxy1iXSVMJLrbC0hJdtZYOY7+NF8YuiLKRqPx+ON8u12lZDPMm9MGM5HsgHfIlJKeCsttmWHuZrdfNEaJvvLS5dy7nz11EXC3qn8Jq/1NPqaaamso6xzwFP1dAdqRPba0xYpdGs/2fuW7nmrCU2p5759tLBe9JNQHusu2z0aL4ZpPw0n0yyvekO4mjCbD129M9AoYTYatZmQiGr9hDjifgSljKRLUZ1y1dUk/JqLCXvH8yyulYR/sjzy5U1ExKm8cdcJiyXsqkhoHlheYLltJYwMed9srvMkN9OOEy5Pi0wcFAXzouCU/JKEN/pSKz0qrXRa20r3V2+MP2hCR+TxX4mTt33e02T3LBfKWRUJo8o8cLRvGvGfJizuMpn7TThMD9skv9rt6mhRw9N/R33IhAZzzUpltjbi//3RCfnKfanOaqLE0WZtk/ofiqdNO5/2E9LwdDp9+mABJeGrnd0s7PnmYHk0KpdX/Y/9zSc1HTyLQS//hsI7GCN04zh2D/rqqRPf87RJcVO8nQhX/ITnab4GCZHw8f3+hL//Oe/f/6w+AAAAAAAAAAAAAAAAAAAAAAAAAAAAAAAAAAAAAAAAAAAAAAAAQJf+B6kud79KtulyAAAAAElFTkSuQmCC;" parent="1" vertex="1">
          <mxGeometry x="348.33" y="178.87" width="74.25" height="74.25" as="geometry" />
        </mxCell>
        <mxCell id="XZJLIwxgcNW-A1yOsdWD-6" value="" style="shape=image;verticalLabelPosition=bottom;labelBackgroundColor=default;verticalAlign=top;aspect=fixed;imageAspect=0;image=data:image/png,iVBORw0KGgoAAAANSUhEUgAAAWMAAAFkCAMAAADCGaprAAAACXBIWXMAAAsTAAALEwEAmpwYAAADAFBMVEVHcExRPklSPnv///9JMm9RQmjj0Ob////92Pzr1eU9LFb++/5PPH1SPHo+LVpWRHNGMmv///////9SPXhHN2P+/v5IN2T///9FN1lOO3JQPn42LFBDMGJUPX5MQF9TQnM6K09TOnT///9OP2ZNOm1PO3dKM29VQXdRQ2c2IVpMO2hJOGlVQHVUPHtVRXBROnRWR3NFL2j//v9GNGVCLGU3LFhROnxTQ25DL2VUQHNWQ3VBNmM6Jlz///9DMGBFNV5WQXVOP2ZWSmlqW4H//////////////v9bSHlWQoBOPWo2J09cRH5CKWwrHUHQydlDM2D8+/xHMm6Hep1YS21mV3tVPHtGNGQ8K1Z4a4xnUopNPGRKPlxkV3pGNWJYRnasor9PRGNQP2r49/pgSYJUQHZmXXlyYolqXX0+KmI+MFZVQXY7L00yJUlAM1I8ME6XjahOPHFcT3BiT35hUn60rMMvI0RLLHxAL1lBLWdaQomekqxqXIJjSY6AdZK+tsqOgp+7tMldSX7Jvd8zJUickK/JvNusprnu4v728P1AOFHaz+jYzOqknLhiTYZ2YJB7bpDl1/uzoMvBstJWPnz///////9WPnpWPnVUPnpTPn3//P9WPnhWPHxZOn1WO37///tUPnhTO37///1SPnpUPHtUPX5VP3FXOn9TO4BUO39SOnRXOoNRP4H///lVPX9SOXhWO3hWO3r/+/9SOnxRPn5WPnRVO4JSPnVIMXJaQIRZQX///PtSO4RVO3n//v9PNnv7//8wHE5POnhWP4NNNHZbRIJUPHhgSYZONm9YPYFXQXZWO3Xg1u9WQntdRIhYRnk2I1ZMOHRGMGr8+v9AK2VPPm5bQnv7+/onFkX///X8/PVFM2NQP31lTI3/8v9fSH9KNGz7//wvIEcjEj6/sNv39/ZDKm5iRZI/L1pWOoq9r9H39f7d0etuVJlRNIBcPYwaCzPw8e/16v76/e7q3P14aJOvo8Tj1vqFepdQMIbRxueej7uUhawpIi+xvKMMl8ldAAAAlHRSTlMAAvwVR7YBRwMCtgT88bZGO0Qzp0YPtgi3+/wFafy2/Lj7Nw7n/Pr6CUfI/FboNfW2eFSoWxX35VDJZRv+I8jnetK0FD1nGEnp+/n++re3liYs6ZioK7jby5z8l+O49/aW/vEe+dmmrJnr6IuZ58ermL7+4/5Hyf2D+PNn/uiwhbJpxrS0rfywZpv9aEqGzc53e73qwUGNvQAAIABJREFUeNrsnH1sE+cZwDtIQgIhJZBARhMQKQVBYJCRJlFLYKAo5WPShIIG3VjZykdQpbGyVZMmTZ007a9K/HfWnZ07O359d7bPTi53OTtnBy9u/BHHuDH5oCkssHptEwhsZWUFKti09y4hIVk6YlZNd9H7O9k+n19fzr977rnn3nuV555DIBAIBAKBQCAQCAQCgUAgEAgEAoFAIBAIBAKBQCAQCAQCgUAgEOmSlZU9k5ysLLg8J3s24GdTKN+erVlOTs60hurfmX19M7+ZnTPf/C4pPLG84PmMmSxbVlpbm79oBpsmPnuSWZpNtJve8OvXN42C/Nrv1K2aP4KXFNYsz6/43k/f/cn27ZnT2LtixY4dO/Ly8hZPTnmLF68sWrlmZWbmimkozRb/R7vMH2bOaPj165tiO+Tdt3/wSkZpTWH2fDC86kRpRfmZP5zbtX7bugX7NyyYIBciVi5VqCzJXTC5eHVubknu6v25VOX4h1M82WyyXWWl+F8bTq7v8YLVC16C5K57761jZ4vOlFeU1q3SedLIKqwpKH5916l9G0oojIJg6vP4nAqPTUNdTImi+mqcmLASjLfM3k6c1g6jSuI8Nev6plC+gMfdY+6xyq2nztUXFxwqzNJzDNdUlzccXf8jVyqKaQujw0w5WMy1rer3h39XfeIFvRrOqcsvb9izfkOqp5VqNWrMsdnM8qzFZBz4zZtHDheXLtSn5RcPVbx+9M2yj2MdrTwv4dpybBLMRujYQ8diqbKqs/UVh/RYZCysLV95bGNvb2og6A87wlpz7JW7KWChgORjYv0btp4rr31Zd4rrqn+8eV9P6mLo+nUpEvYHNeaYShAEhQPWGZbCccDxS/fUf1dnkrPqqutPnUyRsY6kb5RN8iGt5QqKSBAYzlocIPl5xB+P+N84crr6VV0pfnVLw74BsqOntT8UjvLBCJtktBbHCRwDrKM9GZSScafff6ms6vQWHUnOennL6a3rCLUqxS0MrGFxRmOOMZLEcGCiLA7ObBbNpNB7+Z31p7fU6ed0V11/TGQEYaLoF3AcJzWmGArGAWB5o5EhcSKRSNCxAfuvGqoX6uXKo/b8kZsWVS8JEQiIV3OKOQkAQAkiI8uy1etlWmOp4d3nly/Rx6XHofJdx9/BRBzmCkEQ4AvByIxJY445luUALohegiAFl8vri/V3uE7uKq7RR9VWkXk81eOxeCxKLSEIJCUwpFlrjuFxBrePhGmMgCWGLA+ZI8nkwL4dukjJL+bXVw1ER1mTyUPDX4BTuNHIms1GrTnmlW4mUkUQrKaPB6I+v2/jkfoCHVzw1ZTvOZ66ccPj8fDwYQGAZ81xs0NrjkW492FtgZngRno4TyD1t1FHMkif3Fyu/WyxquD0zy/FRu94JgDAAhwOt1tjjrHxMzKGK9vY3BwIDKWuJz+/E/n27sOvaT6QTxRvLmnFvEP4FEYVTJOMbyFJ4k5g7LZ7CfKlU5oP5CXLzmyNjcZaXZi+wDkOnv1Iguhf2qD1jFz3yq/3xwai3bpzHPDg0DAhhjYeLa7TeBjXV8mYJdJx0aQ3xyaAiaIo4NG36ks1fSFSWLH4twPhjiCG68+xBRNIkqGY40UVhRov3Nb6YpFkRH+5QnVsBHz//iOaPuvllJ7Zd1nyS/5WfTqmWIc/Yqo6U6rh4QBL8n9RNpSMJH3RIUaPjhnWEg72bivapOHKYlV10UbGGWgHeLfeHMOrJejYbL4eYb+v6YRcV3x2naU9EODgYac7x7ji2OEP0hs1nZCXnz8mswF3gLPK+nOMkYrj9gDfu/vt5dq9x1TbcIBk3Xp0LAKaxEXFsT/e+0ZDrWZHZ2UX7D0gONxu1iLrzvE1RiSIbrMDuCX5wN6CF7TreI09YXG7nfpzTF0zygkCxnE4DOTje5//lnYdZ661WtQ4tuvNMW2UyYTX7Ljj5+W1mVp2vKaMcIyNtXOyfU79iuNDVjGT0Wq1Gp+ZqV5UdXUT82lKpmmZSNjNMNOBngNrMrSbKzIyVxtpp8nudbif9hvV/nFgpb0E4WUc7jH4454BBwRYFDgOAJyC+0qiPR5PIJCmY6PZbBSczR5w0eWXSjIzsjXsONdKt3MEwT71vofqWLLSCZIgGIt7jHKkB6tMChyjRi8Ak45Z1sR70ndsJT3NJsVxcIEOHHvn6Bg6oRPKoCg27u5OEy8DJwWCGB+/MZkraAYiUcix4hieaaxWEfeSOHA47ESawJ1DkCT5+C0+fuMI4LhJouW065p56hhaVs94pDJqB5B4WoiK34QqV719j3txZQCbxEkAh8tJAjnGKEEUyYlblhR8k+Z4OJxS4jiBqyMD4RmPAl5lHCbHtrMcwAjSa0eOYZagRVUQAB7l2LY7PWnhlGkaAMkJ4CwkEPAmRAyw7e18uwmIBHI8nomVSMYBx3kwq9Vub2bTgrcqYL08xqsE7KQsWPh2iBMIMB8zyDElKXUbvAgB8ejlncOfvteXJgf7+nbuVGYup/r7Q6HQJVeoNxQKA+iYx6ziRQw5FmlGcWy0+CWp59HD+7c+S5NbKvdv3f/nPfvNrk+6hoc/HOqNRkMw+XA83u2br45zMjIr5+r4Gm2lCdFoSQZ9lx8Y0qbTdqGzsbGzcxA+4Nu7f3108UrXzeGeXjna4YskY/x8dZy1bMXcHSudiQzDxSm660tDW2Nbmly4oDwPDnY2DrZByTZo+st7Bw+W2cv6Y7GQTxLnaxwvW7F0ro49HlokZNIc9Ec/fWBoa2lKk5ZxbC1Nf7HZbB991NaohPfDn30ybJdT/XxSnL9xPFfHePOEY4nvvfLA0HT1T2kC7U6jrbGx7a6SNe79vQum5TCOHE86tkhy1weGq/8wPCODytP7IyOdX4wYDCMjbYrlrlR0FMWx4lgSZS9pdkjdfQ//B8eKZsVzS1MLDO7Oxj9Dy5+N9t2IU5So9CIzLMtgyuDXdByv2aTdfx1Su2POjgMeu93pYLqxPzbDOG68MFPcZMadnauDKo/bNjXZbAa1writRPYXv/yXLIfCSV+wg7Db7SQXGCPn6Jhw8dyCokXajeO0HRuFccedF2YPUZvK1NwUg4PvDz6xR6DniaJusPP2XYPtqyuXen2xeNJHuFwuHAQCc3TMqY7ztOs4Jz+v8pty3DiDpyWMx44bb0PPnTbbo74P+0NS3ESQXpLAnfPGcfaiPOr/5bhlvH6zNc1wfNtwe6Rz8AOD4aubZVGfFO1W+j8xwOHzx/Hqb8pxy7/ZO7emNLYsjtfM4/kE8zJzns7DVN7nyW/AN8hbvkIqVeclz/kE7OLSjTTdNHLRbulutUGsrcg1EDAKyM2IQpFg8CSA0TjJyczajTcQI1ZRdSzttS1KBXn4uWrttfZe/8VgQB7K1ASmDEZecgH5vABEbfBk1EXoRWujNi9aaZPZRBvZh8P4l4kxBoQ/2/M0xuURjAnddhujXYRKL6YSitQXOtJGnfEIP4aNjbrZyv1ijyO7HTPgx6ibg52PktGbxkY+Qa5SaSmdtumMrzNGHL7d+qGYg0hytSbBuTZmqBx6+fapj/V6WWP61runx8iYqwhCJYRxqO+1oWE3xmdHQ5SMMcUxZWBchEIPFS/+RyEZ4caM6vIseY1pdcZm0hlfO7wc+5QTMBebQlMjXLyM5wy8w6khw3qW7Ka0WrDrjIcZUz1D6211byuf34JVzVeHrdWqPnl+/P1j/9WYIlUevuLHR0yRQr3ORlz0eBacOuOR+XHJubUeXVhYX11f3QSLrg6uJ4VCAUC3Oq3TLwhpJ5tFSCmal3tmE6gbnjhdHo/LoceKEYzlXufptvp+RxTFOdFpUoGQ9ep6XUg7Mhl1c0/dMDSOewh3wYOL3GWIEWDL3IVCxLHj8Yj8rT0tjzMel2p7DksiSi6dMyMk7bVlXzIeSSQ2k6lfDeHv8BdNfMWNEVckOcZhXWf8Ez8uLfpSSaNCzBf3+ZT5QUtu2oJBcTUaZJXlzbeF48tQoV2TcGT7gwBSnwHGVpdFZzzCj3dbBV/NF3eBG7+mTalrd/nby0Z29dPKwUpkYT2znHz7P82Rm/10mWOYtTWuDTthK7mwsGJdcNyBsf2+n1f8c2KMSzOZeeW12yL54w6e9w71dfM8b9EGT9BaM5d9tQS+XykzTQTJtIDW1mQKkFPoZXVRmra7rcq4jH2+18H7fbb5y38mzthGS6Rn65YzHVf+GPa9MsNBHhcSOI0xCRanLTPv9opO5Q5+LN5nxpM8o78jY77WgWBRrlxhXET7FDoxEMZ2q2NMxmxq0e79TWc8knEsfIhQBbKJc8Z4nyu20atwijB2OMb2Y7P9Xt81/e0Od6YTZmyJxo+RLFwyxhiy5Tb6Vk/x0y77+Huej8SKf/z7QdxLT9qPg5sG1ORQDhPGAjCGR45CbzTGNvUujIN//9eD6BOaNGNTdr5Eirwcxn3GoRBTBMZfCWOL7S41iD1ynxn/hX5sev8H2fQgUpwxlkNMcx8TxvFpizQ2YzblY72/6X488v0OYg0ZiucLxqEKE+IgHodpnjCeGZ/x/dbn/YV+TB+s13sIreFzxkKoAvsfemWg2WmX/06MH0wv1qTzikjAQBhfxmMsQK6MTlpmlxv2PJ3xBBgH5xvadd4Q45dVm9ct6ownEo89yx3SknWFcZE0tBiSJtFts99lz9MZ32SrmRKiityV3E27dmqoxqXZJZ3xRBjPJ18iSiDHbn3G/U7Qb3WHXZwV3Q6d8c2M7bSJ9tOaDnrI+p/ZwJMPxTBZHDyb/xNhgZy1UWd13hqEitOWk509cOuMb2CsZhRPZMXlJVMT3G77kDkVh0NVZxa3Mz4bu5r98LxDbk7bUOr1e7WOjhgKoak92m+JO507Ozrj0YzXWdGjsNrxsIu3DZrTaQXGZvNUIhZ4nY3+/uMYybsUJSNGaz9ER0dNGX2c8tGSzWbld3YknfF1xo1CyqeYWKLuT5v9/sXByQqLXvBl8kaJrdhyIvL+jx9fkdyjIJkgV00QMI4EJKNC1W+WaL/O+CY/BsbzRjIoARgvSkPTKxY9VjDWqwTe5X2mvafhU4gUOYzO2u4pXIbk+JsB3BgYG50Ph/GkzyvWFVFrujTHeZ4eslnyQQKznqVIIFFLJgsBiMa436TMEcQygqqv2kqlJRswlnin7sc3xOOFiMcGWZskut3WwS3P5bYTyJ6lYKyWnzFUZYQ4ocyUKwxDGMuk8f7PVjUD0RgYG623jbx+pIydEXK171nxer2elZU5z4CtSLzL5fIsuDbXp17Un0M20WUqTaFCOsMRwjLVQ4edmm85ThjTtM74BsZzylJkyetSjHbv0qw4aJ407Yc4YHFmCob6RwgUHMdwFa7LlBkEpR548a6hmk/Mi2TIi+mujB+UPu8n2rHGhpqx5GNObRiI1eoctExqZmZjW622Sq3v4LddChW5Yhc4M10ONymMdn9t1TZjSlSySWbJP77O9DHp8752DJ16qx6uaxYO14dWp1RvdBozp1+1wzauQnQgCHWb5CSIyKAK9aQvEFQSvM1MGJseiuZmkvo87mPv8PDNm8Mzu/jm3HpfvuyeN3k3OaZCacqFJjlrg0Dx5ceU+m5dfPc+GDcSxjb7A9KOTUyfh8ponyP5LqNlCvj6kBAtD5blXg8j5qjcxhh8GIMLQ9J2YniWyDi3gtlAljcBY97CWnR93nXtmEAO0cgZmiCEZKiRqcFFkVkKPfJr0nfMCFhrpMdteCU6Dbf2fFvxZdazmrVqjKXph8N4gvo8RiiiJlQVJBtjsDw8IwThHBFRd5uc1gaLtEeifkQf6+Ftnq+ZEgmiSodQoar8tM54BGOyeeE2CRbkzkiWh58vrq01u5V9htPkTLl2OSRwTWD8qlqqOaMfPqvzgWg0kl2lzbQjPX3r5/c9SsZkKsUaltvkAglqimuM18D29yuVI0bg2jmEy+UjhqJyx51GOHpw8Pm/vqwtmwgEEnFVVYGx7sejNDcYXyjRR+pMy2dnE/3OeY6iiOyU/HTy7Ifh2bOCGo8efP70QZpW086FuTlaZzxS9/+zOQAC+C935flQiOszB8/fPTUYqtuZ7OqnD/npuJp2uB7SbIUJxoqzqSDAbaQNYtd+0H6bo/qUW4ZkLBrMZsW42exgrR5d9z9CL32m79e+yMPgEjRBb9/6jHHf75ttTMlQnew+K20si8o8a/P7jQvWFZ3xjYwvBwgxA0s4B3wetc9jCyTJMtbykFPDxp4iSkabTWK9Xp3xDYwvIgOZlTfkxxeMSVRhwK9RP37vFzmuUhQgez5pzDgTDptJMom8nruNzivGM4o4ebl8ntF1EVepMOUjMljosFXNqzYTK7pceu42irGMB+ZrUsPrbMQChu8IZKRtgyRr1u5DyLAFhD/WUw6LwoqiJI3P+PHo8+40RBYiMNNkihzqAmNSGkKuXCQzC09KG0lHTIn6x/bjx6TP+9rodErwRawxwjqdTqNUr9dfHJ+QMZu7XdTluO5aExifnXdwVA/Jx2E1EZh/FwhadX3e9VjRKGyAbao+1Vcgpg4u1QFFsrqRKlQNjfrxF4Rxl2huLiqWCsMUc0QS/ERNxgLvAuPegzwmfV6v8cKXr8X4ucjccgbMujywMpFYRNxRlPX3/2fvXJrTxrI4vunumsUsZqqmpmpWs5pVllPVq3yBqXyD3vkrpHrptRdZ65ZAQggkhMG4EZKAyBgisHgIw/gBMi8bjIHgInZ6xq92ppJ0zb2SGRs/OtCkatJG57rsxBVn8fOpc8+99/zP4TQt//TpzhHM2khF75uEJcm4Kzo+Bkc994b29MdxGc+UPk+pF/Kl1cNYZClMhwU5GhY9N9erxEu4lhPrm+GVDJ+tBl7MAwmckcA47MHtUjmF0bkPwQ8qclM70DhLn3fPu3TB0dIOtbBvibbn7DmGHlmUf5lZTsQSy354XlZXDsKD7gA97KG8miUVo74CNFAl/fv6gdo6zE7AeFb0edL+dvugLJRi/DrvxKqOAvw6suzrdifhVAUuVBLa7WpVc+91zwBZQ0cXxFiS+qeuxqmig72yp+RVufH3vBnS5+Xbtmo24/M5nYJQRFfAI1YUhKpTFJ2iM1oo5isFtbz17AWMEkGYt6E6IZhRs+cNFzwGXu6orZI2fi3WzOnzluz2XM5NELf7V9hRSSFhJzD4GSMwipKxUjbjhJEYNM5RzWbQZd5kpIDy81w++SZn6fOm1SpQzZAaCBy8hxufC6ZtkPHVXQaMyM/3qul/u61arKkZbwSyB7nt79Ft0q5rV1duML7sVvlli/H0mhs5lOXa5bV9oAc7Qf2acU2BqbYcHvcdxGL8C7ZCqBhefPYBkP0Oesm+wRg8y6tpi/H0jEtaJhaq7g3gqaMDTyHX8Rh+el5WY1asmL5nU1NTea5a6QEddGowvRgydkkk+DjIp3MW42kZi+pqOLlerNTBMej0bzJGGfJAjeEW46kZNzme53Fb9z1KiRHjq/fqGsyY39W1FYvx52BM+H14tLtg9OfVIWOkgQQs9GdwVteSllZhesYeL2SMuZ8dGUXIMHcbMiZhYtFrcxbj6c8gHm8EMrYhxh3UejMeZ1E0ZoNxGCx6dop7JIz/j/2EOA9HeKEfd1/DeOwCx0pwyBgF5J6Mc5YfT+/HXGTJhzm6b4EOGXdIkzEbNP14A7f8eHrGstvD0LitLiHGOrjJWIGMi48mHv/p799+1t4KkDHHcJydsC/dfle+PZseMg7TYrQH97tUrQbPeWasCAZrJNKh5R+LPu+bP/758zHuLRYCIQe3KBeLRUF03tb9JxIjc9O9saR22MIGc4AERlUyurNA+bFyKgHpRCs/Fn3e59Q1wVhRDYg8jQtRgRO9zsVRxosRwoTrgQuZ0Mq0yuqTj0Bih4yBwRhCv1jDSmO/S8+QrsnQ/TPpl5ElhvbS/uUIPbpomjF0jQ7MYTLKtLh8AT3pmYxd5FXrf7jlLQxKvNWP/gHdvz+d8PORpcjLxBtiVC8dMfiardKh2dw+X3LVXRlA5w0akgWzUhbyhow/DDw/iBbjB3srRJaa3ibvh/48YhHhyq7idDTZygTaJ28BaTC+0jnAtMIVl8D8nuy3GD/AOExEmk2PB+W+zVs27CskiGaLFobRDrYrSH9qMkaUWVej4SL3QbeQSVuM7+8nVJKbuSgqa5PdgnzLaK/Xi1pY2O0GZg7L59uDfRSNg0bjfyRdQJMMYeq233OH01Yd/b2MFysBe1G2yVEYD0S5OLKiPh+1Tvlo2sfzHAcptw8qMFIoNVNRRhqXx2hYJAwVR4OyZmlu7mN8slVtr3AYbnM43LLd6Rbxm0tI+MP/SiYYfyyZiWXDgWzlyfYRPH+ww4ZCSKKKpnFC1HN7gdahxfguY6nX3gnx2UwoFAgUBcEZHjUmss7H0rF0OtNqZco2rPzk5AIck31DA2UqHUDtfHe3JgHQDWSTMUurcIexst/7LhTeTMfW19E0obtWUkthNaQmf1gpr7YDe9vzRlEsa3oxkpXpNRZGZkUHl72t7GErZzG+Jx4X3Kv8YZoTc7miKL4a7VLI+bYM27BvyVuVk5OfzpCCpG/oFUxtpK53zOQYDA428Axl+fE9cyBPut3Bztr2Q2a2wHnW7Z3Uf3qLUuELVON2eqW0Nkb1smxNJ8HruoYHVvOExfhuPL5cuDx6fYQ+kL2+s6AtLLx/f2z+a/JUQWkE2we6JKFueugY3UHNRJ6U8lyoWrQY3zf7+Bcmx7LgSvnBouYrpBQPwp/fDTbOoR+n0KzeeLAGGbPwxz/UWyucvVidZcb4A4zPG+d9NIkb9UxwkUM93vXsY1QARJrSPQXp8+L9xvk5mu2WQmK+uEsHQRibdam709zMrRYn8GP60dy7eYhiUc55fQnGgxg3Up0RS3XMJiAPGhh2rkDNK6Ch4wbSTeoKUkJ2+ucuVtKBUi5jAscRsjwu4y9dnwf9+G9jMsYIwuawCV6fl/F0/wnIRgpMtu70H2q44kh1quj9Y8g41ThFgaayLXso+Bu12ca/P/6y9XkT9HdDjOEJ2Y4YQz9mG7f7Xn1q3TT0d9QzBE2ZRn7M7p6ew30QgPm/5t0ihTnGZ/xb0Of9Y/xYgZqC2Xkv54Z+DCZmfFOVPuSM7tr68KPjYl1n8M/zg0rU5sAwh1gsPpb5ed/8YXwNZMQDvUuk/sfYRQYnWnG4boA290wjMrOoHRnSQj4fLObzdgoxlmdyfl4kAqOk6BAZ4YpxcHKL3zATMfxmHzo2SprP5gZ7UYdGiTgmiLM5P89kLFDYK8SY/VWMbzQRcSEtOvo/lJqJ+MNgbVHbKYUYmsHc9kc1P+/biRjbRI4wGCsNFky4SLSu43PqqsuTcoxawb2be7pTbe9kfwx5qYkYf/n6vK++npQxhWUra+9ALThx0wqTrQJIXdeVFNkx2tykjH3vYn5t8Momi5yTcvp4hpqM8Zetz/vdV1//flLGmVW1/g4cx1MTmtnKUEdDV+CWp+sA1NAsU4AI18taiaYo2uv0+XxefFLGX3Qt1q9hHNZW6xdAUjquSazD7u7WjGiM+nIiwtCdjbfohe97A00uqzTj5TloXganwpzHM5uMHfAQItBJutSDjKWJtzuX62rXG4YOBHi+3tvbwtUMv4lqBRia5nmYV6AZLLPKGB6maW3dA+OxJCnkRCbtwnxNil/3OiXffpzrdgeV7wJlPJvM8E2OoHFcFCkI18NxjDiLjD04YsypmezGxTQNm8DZ+8v/PH9R727vVQqr2RVMY3LZbKbZbHrDGCYIAjxTRiIRfBYZEwZjppVUt7fm5+ZWtyazysHe0+16vVevr23vQMsXNrLpcGbFT/NMLhcoNj2eplvAcRwVL9PEY2Pst9mYMRg7oraowKSTm+pgrvsiszKZZWQ1RGDp9Gbaz/jTm5s2MRdmEok3bxJhHnPYCqiWyOOORh2IMfNJPyZ8iLGf/y3kbn95maDgZsZ9qsf+cJYEjr8SKXp9eZ3GJjPz7VSEhiq8c8aoQui0RpEhTCeGj6vX5eCfYByNwoDS5MT/snduQU1kaQBuyIU0rYSkQi4khBCFkICZRLkzUYjclwEZYAFRcAFl1PW+rpfdHUeHqq3dqhl9SFUnVpAyZYAQrQQqCKRLiyowF0gRCwrywlrhSYaHZZ592u7oILedkV1Tdlv9HVLkcpLufPn773NOTnemLKuTAnw7TraFHP/mb0Vs3FAxYN0nRa8ftg1gjvstzgUaR4hfx9pkm6Vnx47xwJrjnhGngMbBda4guONBw9SIc0GMa8cphHX8dNhi+tdDo3uqfwrNFXQc5wpBr8X0Ifs83PF0aNhyH23tuacsAwItFcJzPu4dhmG9fqCfcI4H3zo2TK3qErUc/Drm0GTmYTS1Pe0lrGOd04F8ocVvPgZY394wo6nCSGDHs86xVy2dRbjNx3T2xWyDhdiOHzrH/XsvsnHrGGgX5SY7YCxXPCaq4xm7I6lQfQS3igFeuiLJ5PPphwjr2OryTsGKPAqOHctpApMPm2NFWMeeMWcll8rDr2NQ2rn7EaEd++CxqX1NsQwcO9aoTxLbsd5rtzUUaAAcE5dxKQvd5bk3OP6QscVPTt/g8DPLk0d6q8d5KSMOx4rpkLQpe3bS4Q96McfGENgYucmEc8fws2Hj074+/dCsJ7spFsJzHGOttxse12t/wIBG7prj3l4CONb5jEYf7J9XiNpxrRiAOKfK5j32Bw/WWSWE44EB2OjzDQ15W+vkPHw7pmvUhSmI58WD+6b3J/shQq54GwdDo4JCtYaOc8dx8ror1m6H877pF2BC7POGbP09lgGHu6wuJw7AO+2i8zdgZ38vBvatpQn/frHvTN2GnsfPRhyCRrUG94oBobT2UCU8jkVwb7fN1h3KE0Yjzh3DvgcDqGN3dlMRD/+OgcycA3u92G/3YIFsc2CRjH/HZt9gT/9j025uRglABErEJq2BAAAgAElEQVREuYtBl9dtt5vGXFgkE8CxLmD1v/ajO7wakBCOQWlt9uJc0Oex2v897yCEY9g8F5jzzDTUEiJTYFD2nzp29MvAjBV+/aqXELkCtgWXApGHanMoAFHIzzl1qHLa6/V6YEeo3Yl7x92LQdmZpvQSgDiUpHdeaekLGs32XhPu+3ihOH5ZcagpPZ9BIMf0/PSmwtYvpxGvDnNMgBZySmFtej4EEAkwk3lWcaXPC2OO8d2Txjqh7n2XzjIpIJBKKMnAnlg1raHDbhsxme7fNxpC48nYQTAf9sYNhvDUM5jNoWuw4eHD0KjgUDfaUcra93uRcg9APHg1GbXnj1Uk6pGB1dWfDfYX9m6Xy9X9G9jtoYsuXPUQRIfetsOPV1ZWnr15szI+mVhx7HxthoYHEBE6pUhdV9gmmHFN2ZyICzHbX4yN2Texxcmam3DVwzYms90+Pj7iX3ZaPDf2FtapiygAUeEdyVF3Nn7d6vMGx2ZhNIpdHmQT7o08dz+3P3fDbnu46ul02GogNl8AmVhKSd6drahTyzWpAIGJ03DUTfyGvS03kUfWWevE4MTzjcXe/Wh9ea7TOdALuj2HqR76f2jCPuG4nFTR2lqmiGkq4Gji6AChidijKcq4/o32UuHeLL8nPjk+YWPZtYn4yF3x6P27wlgPvV5+89yxQv6FJlGO9AgP+AyA4jRSebroRKeKRkP/NsDlR28kJiaGz6WJaeGtp1J9d7EgQ84u4TGAzwM6yIB47WwWdSvyqG2Qh70ekxmr1MRBdOCzAn07dAZuAOkMgISEhISEhISEhISEhISEhISEhISEhIQgMKAIbHQ7YhNgBKnmIwGVSFnbfY0TxWJrNBSQFPQRiJOf7aqK4UbHhAqKJFSiJfw/nr1VLKVApKL/G0rGHcFsfPmS/0nCk8n4hMjIxHdUlJ1saGwWScM10SYCQhMUtMMNBfxfnvTpHYsOBoOPHGN+h2PCMWqftWI/eDnhcJgm58qDgr8paveHZ3o0hR3KSLE7+ggzlRwUOZtgE6xKRLnTc6OIbmJyEpmcQWZmJt/h8I95kVnB6VNhOSAIjL0eXRVd1VWg3EFQgsqCCxIal18QCxLMcWHAG/C6TENZkQkPI5OSIhNCxZxgPzpvDVqd5w7sD0PYMDi0ivKOo620nZxwDeJcaPtTsgvPZ2nblnZ1bt9icMn/teKrEDFfvUOxz4oEphcDfzhzkf3xw4ZB5fe55pdk3J2ccI3B4V/+5ziSFsNhEMzxyQnTpDlJcbt0fRuOVXr723OXp+3L1675o1nhcKy6try8mqyi7sixKv4NPFEeQ2UQLFfkjups3UncqzyAAYJrXRBGyf7vzywsTf086ZGUQmFwzB17tjJRuaMTBzKo4pTl0YkOFcEcU0S5skHTkIB7dYv94rsVLsfjEefBv1DCEccdHmSujb+T1IqdWnXcOJdGI5xjRaJP14M63rzeEex/nEMQ53hPdjP74y+Xym+ZH335Vz51J112DrfcCQc6tExCKaaj7YpEvQFO2uoYoBQ3piGOVWdlF2trsIXmEYK/nqjp4LuJfpvjkQ6kUo939AUWW/jUVCAiQrhRNIOXyoPojAj6xt4HwKNyU/RWbwoXfRL6aOhJoBASClNTU9++Aghu7qJg6yAUCkH6r/dnQqsaEaYhmnZ14bTVjCRv4xgqPS5AvCNOmSRq08J5lJqi0K6xSBMH/feREDbrl6GPknXzrXntSiaTWnAwaeHpYsXdAioTpf5w6CGhEIJ4FI1UjnU1qExl5tqLU5RRpSx5wV2Z1WWV/VggZ7FYUuxoGl6+lMNhMpX12MFLYImSyYl630VBdyuZoXWQUzlSTeae1PX2KbGsKLSEKtPfrip6A6KHQTTq+KXeHNgmVwB0lkrgclmcaVrW+uWClJoo0a3OKr4kuuvA9f1R7PZtNDMo7NLi6k6+pKpKXPV9dXHsmmV6/tVmsViVW4bMBV7JTt9R0bg08S0lugQ0Gg8fYefkqU9oxXw+X9tZncdUlvAg9CGo/lYVn8v98bQ1YDX6T9/hRnNjmjPaASCOc/0ATXyh+Wo+el2ZV32cLxHfe9fWzEQ/y7xqVUxXjFisrVXnUaX57z9qkH29SkLrunCvBn1D7OITWq5EEt0sKo2K+vi9yBKR4qXPbdzeMVc2+2LKdfob6botjVeTcUvcmN0mqEzraG27crCqViTN3JJmpMUnaH8+9FNaR58nbSHtTONFURHl7YtE1N8rbJO1Jqc4nabxFzezssojF373dzQbCVMP16NOaAcbrvy0kJhYkdZS1qg9kRebv4cnjFNWn7mcJqsMegOBuZXl+UqZIKvhhxrUY7rqi4rWQ4rb9RGZzB8k2Wmyvgrtf1g7t5i08jyOSxXrpWi1irJYEUHuincEHVAZERk6KgIq1Wpb747WjhNdnW237XRm7cy23Z1som1sJxLpjTbQCdn1QNyQesCDNhxHArx0TuAJ2wf0aR72aQ9YESfzKAkv5PdPzvmc7/ndDuf3D2+ekFjNae7GCqk0OZ1E8rB76ljK3vLWyJEST2b3vJM9pZ7Pj02fG5qiEgoITeQRfh7+evOxdw/QvKLg7bye/geMExqT6Har3l8XNSUmUZJWks2Tydf1frvN9khnNspErM6q30GWlPZ2iOgu3yLi1lphLbDYIxIOle6/KZeo+mu7x/kKBLUAAgdgYHX31VKYcTJFxWme6prRrFi2H+qW7Tq9z09T8Hs5KgqDgjL2rDiBxw7kAbCzZzP9+mpVcbcVEyPmqHErWxfqalXVHGX7JUIBqHcNpmJiMBVFgnoem0b2gkab3eW1vF7/7wVe3miGOMI47+LTpbeK842lE1OTbL/WaoZNdjnd/z3v+nFDziznE342GDf/gLFkjuX6FfT/llceuXswLeVD7cNe12s/Aj9/hhht8K5zjc0r4xyBLClXUsmIy2IJmIJ7OwAYNAFOtvR2TktIX0SUsYxQeQo2AwErrOmbbWoiiXrTUcaXORNdPR6zGQAtBp3Fto4E4KChsmuQoxKLi5qnZPTKPvm82/7MulqgkRGa2kOMKzjqWa6+h1WbKiibxMlpswqZpjgjPqaitFlIrYEWvW9hqw3xem26JxaLvqejM6MiomPSygML7tydwRGSw/sEMsMB82OjESZ9JlUeM+TMqqvrixvGJvzffx92JaVXqNu6nYuiifQD/JhqzkBhkw5y2CEHuY9WgBiNiBuBtqVHIEs4SqkbdFmMDsQO7NL+ZIOt1qBjRYRtaEHDP1F183x2djFrmIxYfI43/JDLvvJ1S3JMZmovr+ahzWaC9G/PkrcXIZsJBoA9Nm+QUy1W3fwiF/XHYxoIgHeGWXmol7/y9SdETLVAjdMa5f2jtQPSGe7wNcU13PBgY0xMfjN1xfRbwOj0k+U0h7/P2/fIYgMgwv3R9P1X9ojMXNKy7qfK+99RHQuLNPqJswV9TUggaPX63vCOGXIWythk0NLDdV7kE5+MxoEB0dYyFOi6cjhfI5ZT1jUNAxbEP0MVfp6ETekodAdrAASYVHKqMVEqtiJWyLdJmhnrOFecx1fQtG+QNZ80KUfFQF1Cy6dxaF5xi/bI5ZXfLwmV8Gh6Ehog10EHp4OQDdfOv4ov5nfw5BuwNeg62z9aJBar0k5moItwM0Hg1L2DRURGteAWDbTTJtXqfjoNJ1UUtt+b6kyLj80Rst3mGi00IxXik7D4pNt86qIeQlxcoaB6Xy6pWILTpAWCcv/SAlWI/zwl6Xax8JrNtubQbI4MHGsfDGVMXzKYmlj/jO5XpDU29LJEWw63V1F/2NvMOj00eXHVHHQ7ROPNDY1paY1zneMKMgQATQrlgZIrSq+LnGDghcshmvrmDmrVODd0S0p26P2eS3kCFSUL/RAxlKpimt25VZPNDF1aDJoIJOS38Wy7Ox8u9F8fFXA4VYLa8yyFUxuA3ZfqORXELDQ/ZsThcX2zABeLLkJTXkwikRhibIG2C/upPf4enrC4vuyLP+e0ZqVPiLymnSBEHZ/ICZ1XGjNHOSZ3/BJEqBNFYTFgMrBsg8EAwC5NDbVsLmzU+A+laGsXBra3xprzE46VMekB+HxDMYUNPWzKS0rKTknC4/OmqPQayE+Xnik/nO53OYcl29wJuKGRbxtCqWRY7Wd4DgSxunhtp/cTo6JmkR/cM294RTcaToasUKO5skInYnmwyesWtMRSGKhbZsRhuaDNKcNmRA6EmXvBYt7539Qop6haTKFUqFJrbwzrIWuwpr+2JZwexmfgubTKE4TuyCKUMZ9ufARzZ7lsTTu+tor5aXprS6YkZ8q3aLbahgdyQkeA1isJktIbY8EVYK2yPmOfcWo9GwTtxhcrfumNUkkCWlOFjK7w9sxWl+YzVsPxCTk+xHjFoDW/QOhsGclT8JpOILBpJ+S+eZfGDVF/LGmNXNDMDKUI8sNrX42g6U1ilNf+BQaX6eP7E0OzUrEyyLRr+9fYN6WS5IhRmeKRY8n9dOxOqlgsZoQY45tWd0H64QZKWVXd732vp3e6BWIGhcJAv9VFteN/eb877euaKApbMeKKe+hcOeGwJxRfIeDL9UaLNmCvmezktOy/mZeQ3tz1nmA6pYmeYippENb4nGs72SfD22Jh4urZdhO4oSOMfHvoGCSlSsU0DG9vjjSnY44z5u0zNq05ndtrkHV7zQ6brVaT2ebQvKOqS9IuHyTun5TUfem3gw7R36K9laShow8At592dZ5mhKKioI7kMu9ZbT82SKKNhHI3tHXx4vVQksBAfQUHP/vhA0jLjWKc/aXjtWW6m8MgilEdU8Ti6tTeJKz6nPp27T7jrLjcCyQugRC1SzTKmLsw7w6+qOxvi6uI1Bd3c7Fqtfrc3fyoyi69TeqGgNVsJvGjjgl2wGr5STEYfTaxpWeufQgsf/V97jE2dDPLWZ4jjM0vn6yv/3tzyWeDTC9nC/no7bY/ZCMhv7MQ9nv1VOWRgJCY30t953324eVVgZhIzMpvK9SvQw5P153o80tM7xU5f36uc9yrPWCM5ZK5D+mHLbSsKqxMjwb2upAFqmMGClmVyqmKFLxotYc6mLM4emVxNOOrlc9XwXVS10DU6KvYIiaTmcFktkZ+io9JbG1rt+s85IiOsSSjZUN/dqrhSA4h+WGc9J95xwn8MTZ0UcZHfMXCqQKCxyPzeGhkssFga0J43SWtWR9v5gKD3ktj/SD5XetI2OMO7hbwRlVEIpqv0hbmdYtHtR4yYvn1FrueGsoRKIww48WFJ1GMk5nZMv1jc+DS9dq4omoKJaxk1DYZgzlo3CRnYHGVXPJRxmqcwQiSZfyc6HGayckJiZFeFCYxObYVjeJlYwjgk2fHfdTxPuPCoaNPeRLTh6ha+yZZePP4HHJsDouwHB3zUlLCf7NIwf+ftXOLaSrP4ziltAVqObRgS6co9l574VQRsOC0ReVqGRAZULkJ4wWXGcTrMGOc4CBRR2N2kibFBDQQGV3LhmLOGtrGTZPSQw8SYErgvJiGZh8AHwae92n/pwVpT/u25bEp5M/n/z3f3+3f/mlKSeAvzPPp1PXsr1OIvkmRUopYcBmXEbnDKaIzEmx9090xACkU3xobMdwZWDwbqY4EZnmfyoqMoaqBpCBjIubNDf4h3WWcIjpXEbCvr49cfTbQVQSl1xbnE+8URPSPaSxYPrknjDH1SAPrLVJZIDmXGetj/ikgkFE5gO/jx491mgUXMmXaD1HCGAPFkFhS7+o9KI7UnYufIYNcISc6dyPSt6d38yTWJf/UrY5rRKHHrDU2LiBmYuPJ2/TorNfz0i1vgRRiqKYOt1h8clp5ZO6Twu5vnbG5vbIrauC1CjrBeCiCMdGdkvntdv/ockdJ9/EuY5E6Kbc2X8yLGLSyEgdJjH9tA6uHdcba6O7lXg6jnODb399/8z+/qWwftsbxtXDG6Ft+NdkTmE/ThFbrhJwWP0P+7tAlKahB2iJrkORQJpNXsTw378QMPSJegiL3gsHrwoW6qKkIs5wrc7iwtqxMgVj9UGbBrEOqPnbkv0znPP4bPmtGZdfVwGsFsRjz2J03l3D0v1ujXutiR2OJUnuly6iGasWUsFkTbCMxBrmbo0AOa9XR38zEE/3eP8D9Rn/1058bp25sLNo318etOzom6rwZJ8KvJi00gc6mmbC5UX4aI346PlQiBbW0pul0jJ5caXfb64nASI6y6DumGBr4ad7jFHKfMqP6c2kyv8+ak8YQKKA++4zZ8vzPfkZyVMMftyEvpYCxQBHyChLjBOrRzpKqlU3E7l9ynl/yJ/LhQn1LjxEqFnzR8X54jKxjnRy1vYJpSaSLSoEFZ/be2fD5VHK+xbO4UqHUadY3t7B7TaEaRMBIzZkxI9IG8kKTGVwLhk/LUhlx1fG7CaEuO4bFp3B6KtrHZ/3Lhpp08Qmor/WVy/kijbzxYFUPUDP+sYp2MIEO9f3odOLWU1GMmeUH5JgbqfwVMAY4BDEYU/LLe7Oa4dXJkcCI3eux21Ec+6niTo+6lvKFsXBmaLIgknFBgc3M3w/RSc3V7Caa8h6KfCjUVWvTlGevFZXm1W298euz83f6bjnvzK7EKMYUxoOP2Or0njRG3Co9Yi49ZxE2HI0VMqild9q3PBPO1gGIYFxlnjULuTEYp1V60MXWlqSEBOgXj9NmmdqIYkxnHzC9W0C+AjomiAkgGjw4NyqNHH/u5RTVXC8p7OCfX553+5F/B/xTkzd+qC/ahkzoWBiZV+wFMQ+2rsqzIi/cLTvcpDOYZuxrFfrvs2+zn97//XBZWfazcbu3YfuNhI4Jxi0xGF+csrq+4saPMfWIMnFoZkgX83oSZvmD9nX7xLSqBQI28LB1atj8Itorkhmpe0BGXEVLolCgAbvXjvpU/WQ3A4aicloc0gYo2PcCjE3WOb+MGzli5tVCamNXPU3XWNhqwnCbd821uFGx0zIRQMdh2ASzwk38qFZTIH8lzGKH/538I3mFMm/Af1XZ80QULOe/Bo/pwYZKD79h+0ZT4McrTrdDWk1eKPAK/vygQxZHHRP58dDM3KVDse7OSGG3tI/bFhyq4yBQ5NYY0DHnpDIq5tHZXIcdf19FyyQ2Ah4bQ7FPA+SlM8uzhDafp7Ia2klPTVgAJV+qLVCI84tzIXW2saleXyJpNfmdVm/A0Bk64AZqM7gAZv0cpmNmUoaGBT+XHwgnwkzvlCw4HMuSy6Wi3SPUdIi2x11JC7UriAWsOH2OxOroBy5NPmT1XEyNG2N6iPHkpd5YjOmcruY3s47pqizAOL/o7CLmdEk6RWR8T7kON/5e0pkrUOR2aQJeHFO1sElvoj7RC73oUmVLaNgP/NhkxVDyOSEKRQAwi08U1+ZCR4xN2ka+D5SWqu5QtACMWftaYRaZMetVJOP8R3fkox7bzbwvbZXgz0FtojtHS2ZMtj5meZocW7XL0+KXu5VlK18PzbzTNN2mx65QXsy6kMX9IGwLIBC1UESoL43O2i2Osdf6+/lEu0IX8I65hTRy2sk5UzeEOiclF0I3MYJyonIQD9cxk8cLDvFBfQcKDwBbXJxelFEoWzjmX63oDP4W4ALvg03hXpGclHFJw5oUhjOmc85UoB7/MeX9iDqICRiPSRt2GCfR+E7ftLCaPP+h3tfjGI5IOuN3ZSRgnDM4Ngzn3U6OHRGFKOLOaQF2R8mkVU2hs1jdBRGp+myS4HZUnnoYOK34aEOV02bG9aTyicnIykGxpYv67LKdkg224hOBXUkSZ4uJL7bKLQ425gAFgaJY/bBj02/DW7OCoiIYj7fBrLww8ROMNYnCA2F+DByu1WdGJd+LIiiBVFo6YeKSGOuKyki5VOdVB748T9qg/9ePpRZkGOg4hh2X3c7QYKsLE3UDYLl0To9hHnk5Ju8mdVHuKvm4Z4G/n0hNBCfPSKwz038YOkW8yDfphZjTKuRuX/CcnKSF+YOITJu0zYGXazyelarV5hmJhoYgdNpC8K2x5Me/1mxVobQBcCl40wZr6ncZp6RHMwbl4LHnjrWbvZEXggApOFyWnZhHMEZt01bNtcjGStkjfaILx0zfxLUndF1uRpBYfkwVldZLXK8/Oj+WBCMikPyUD/EvNfeFLYtoIN/D3i8gdWeIjoGg1njJOjzt5nffF0W0DPM0Vrt/9WrP9pluwJglh/e1aQ9uM1ZA9YWLi4l76h6qi0+ICSETh3+KjSWfHZszt1qCxRnQsXAcZmm0u4lmcgzGRM7iHfUCHSdH7PJZ2fqmcCd3I2ZNqNsxMmwArk0JW+jlOr/LvMrKOxnXOci+8dGXmry71NDHxYLf10YJ5pg13YbK6VWrpyAj+E8xk7RSt+MfvvYfdnv0YB+uGUawyfUfn4VOCOSrG+BhBFntuLN7ToHYh+ZP3gm7TJldvP1SJpcll8AV3eBRTU5mMumK9CbJsfNr/g/dxvTioI6BOYtzu5o/b47Pbvyyw7hgHL4o0x06zUsB1T7x0jbjrAjGLfCaw56o+7uISvmil7vXbr7c3PLrsk/s6tg6O/W8vZnIPig7C70sUf3rsxNr7I3frTgpvKNZ7TdWpm4Z+kvL2Rwqj8rhnOawOWVUzpMrdZVL/3xln1eV9IYu1+DUFH766JpGA4Y+YtYUPEBb8+znz+tL7280n8vcGwo4NQAn4vr8oS44wqEEZ00Z9za33uIrhedE208g/eT/2ju7mLTSNI6LAqKoKBUGBwoHRVCOUK1a8GNUHEfBRVpR6gdWXUWnKOr4sfVj1jo1TjozrZPsponNZG7GdDZpaaI7IdMeiBMSAaFtZCtBbwyBK6gX1Guv9hy1FTs2m81qdrt5f+GOw+Gc5zzv+z7nPP/nOY2J/GnR9HR+Aaal0sRkfZI3OLJlD+6ov6rIEX+ahc7GhVfw/cMX9kKBX8sviw/WvErOpllxSXQ1T4qnJGtQb2cm9zbxRAIdlB0xH4tbyp2mZ6apss7PsMGEI6K2axCKEMcmvC3RJjMxuRUOz+a8WHxs3rE91M9+i25HwmGZs8/7QnuPf96shS7STtOPcztgb+CntAEhNKdlSVkGw4RhyMBiGcrk244ffMH74b7rKbS36VBO2L7h4fTdOMiZ3uodGB+3Iq1wH6Gg+2DU02p6y8e84cVfPOr8OzUpmFq8Qai2m8zegCTpSKlBbZFcUItE9mnhOQLb8KUmI0Z6ravUGd7lqGVf9+fgKXh8cf/NZl1gN2SE2Qfv08Ul3+zYttoVU/qiq3R6/i0NEfXZ/FGR2pPGjrwHuVIh8y5bfV4uT3j5IuoxsXe/PMfjO5aCTr9/sqhiX16HS2Vz/v63R7bHXqezdOAr7HRq7nQO8kaC6CLrb2s4zRdRk/F0gdnnRtxO5WStXDhcJBH1iASioiI53+SwBTfc8MBR3qMkp7FtfMUW9jgF5c10LFmuH3sdXvU/1w+z6slHuX9JIGC3Orn6ZvocpMpt1vMtZjfiGx2MeLtad55Mlzit5up0vK6Otk7xp+i8IKt94UWstqC85xqDUZlb1qS2hqyIPdAzf6jw0Mw0jfmsG75oQWZaR18n6twkChofTzkFjAg/jqJJ2a3GNZ91YQ2WDBkMcwRoVu1x2BJ8QevrkLyZYPiLhomjoH58z/Ts0vRUYMsPD5QlzUFloklH6eOwpVSSf5puHEXEX402mXYQG7LkcBi5Cq7J9MBkMiUkLDl/QOwO95Ts+pGgA9OwTNtNSPDB03XBJD/6vMO6uOGyvOy6lpd8FEZUSxslrUaL1+dQcuCRsZecdYd9K7DVXjYREWvQpAQ9X5TY2n4pkd+O2jgjq4TyRVvtT76VkO2hiZ+p8GSiMa4tGHIqJY01hxc5Iwcq5y64Aq6t9X9stt+mELH4WD+l8KTlRvoxWdzf9HwdsSy5Atu8HjlfIQg4/BdEvER7eHxcxx9ruy7OYqJ+/GJhUcGrg0QBj2M1mKmIbkWsbp/Fy5fnn66GhYQfdj4JhnyvzWaH0eV0Lj958ujRk0f37gV+TJSPSpqH8lIiY5vugt7RjjWnJfjMbQrtju/shMa2YTmUR42I1IgxBY0Dgh+XHaWrDz1u/wY6GLfW03iMmaoI5yDVzzfL5e3wdsKUsrYcPWkyGg03yLpeufwen9FtNdudZovL5Q/0NTdI3yz8JM38Db2u1egKbG7Cr25TSFh8wvchG/5jfhyVQfm6HDau+iwPfI6dlZB1fetVl1B7rodvD6/Y7duyCg2Oic3HCyZB3Wff5EuUiC28sre7F9pFHnaUC7V3T1eLRU4ltG9Fn9fxFYFMLvwc5n58PloRfT7zV84F2ZCh/5uqd3rmV0v7odGX950biNtsD5lfr3wnl7Ww6o9vVHixEypSC3w2nw3ZeOqBdTq9sIVFPTb+aMkzjTdGR/6YwO/o6JsXf4QjkUsoFZCkFuY899iX3O5F5Ddla9/3jXlVhW9nmAzxTH5ZU/uYUlA78ofbFDIW6yQqJlu74o8lwOJKcjqF5cpV7/qqZy9kNXrkQi2rStorX/O6LeE0WUVJ1L6N7y8LkmK77xqE05PB3d2VcaubPz2oLT712trkijmIoUqKh+YYDEY8xMZKpiH0A30+I02vjyFFvTP5F9YXdA5KBroEyrRJgX52mNGSl1L97vPBGGrNLW1SM680jGzq5EVJcy0sdOV+JzK/Qin+QsXIpdPRNe8T7EscTZMzc21wtqdDoUASMkXfQwQtKzvyIjP3f1TJjiew2Yx5TRxWS8lgzCWpJo6XRTJLKMUtZX3wGKx0Znp5g6iFu8nVBUOSrnZuO4+dU3gQVyz8rKhLwdHSbxkqZ0VcuFUiZBtYfzr9GnEaNfY9pFef2KsZk0Rf1rYwVOglMdy5m51+4tshyNXU7DstdBU9KcnAyk5JP0kITsZU7qn7OvpDF2eid9QFrIkhtooOMdAoJzu9+/jOcaSMEjH2i9RD8T2Nisnhfy/MZpaIi7+9CXdCxmgAAAGGSURBVOWq4lV/vcxKx+Q0xG7pzNAcfaizGI36MBsbF9bO18ViORNqNksbz1BpWTXUs+h1QNyvi/h9/woc7r1/houpT696I+4nxUW9J8whH1UAvK8ZBjGOhEarTBIxQrhEqz4ohMAqHD46+Rj2D48Zd3T4J5WpkwrFFPzBjt4MoZj6lJSUVHFJFrbWEwRrS4uKuljim2NF7w+q/5cKWIn750n6F2nFw4v1b+8dhzuo1CH+p+7DZDJJkd1OiAeVNcSDexDjPZPi7fNjXFwc7v+sxfp/m30bL0XYGHDqMPEEjvGZ6WNg47ODlErA9BXAxmdpY3xl5i8OazSw8VnaOPfpmmU5ejgb2PgM54q037aW0+jAxme35mUT4O113ziYK84Ociy7688cl/JqLOiudmbxMXVCpWLQKyeooE/gmRGTjDUE+OD6mH1o0wXuA+zHBwAAAAAAAAAAAAAAAAAAAAAAAAAAAAAAAAAAAAAAAAAAAAAAAAAAAAAAAAAAAAAAAAAAAACnwD8B7O1cdO2T/5EAAAAASUVORK5CYII=;" parent="1" vertex="1">
          <mxGeometry x="430.34" y="329.62" width="79.03" height="79.25" as="geometry" />
        </mxCell>
        <mxCell id="XZJLIwxgcNW-A1yOsdWD-7" value="" style="shape=image;verticalLabelPosition=bottom;labelBackgroundColor=default;verticalAlign=top;aspect=fixed;imageAspect=0;image=data:image/png,iVBORw0KGgoAAAANSUhEUgAAAJgAAAA8CAYAAACaT3PZAAAAAXNSR0IArs4c6QAAAIRlWElmTU0AKgAAAAgABQESAAMAAAABAAEAAAEaAAUAAAABAAAASgEbAAUAAAABAAAAUgEoAAMAAAABAAIAAIdpAAQAAAABAAAAWgAAAAAAAACQAAAAAQAAAJAAAAABAAOgAQADAAAAAQABAACgAgAEAAAAAQAAAJigAwAEAAAAAQAAADwAAAAAfsDWFAAAAAlwSFlzAAAWJQAAFiUBSVIk8AAAFIdJREFUeAHtXAtwnMV9/+/ud3fyQ5LfRjbgtw2WrdcBxrIFrgEbmIaEMaKphzaFJMNASkkhCdM0BiZDHm36YGBC2ymPBAgkmFIIFAo2YBtLgmAhWYMAW8IWkh0J/LYsS3f37f772+9OOlk6PU+ya+bb8fm+28d/d//72/9r9xORn3wO+BzwOeBzwOeAzwGfAz4HfA74HPA54HPA58BgOSAGW/GsqFdQMIHEuPkOmWxXqKMk2uupsvLYWTH2L+kgvxwAKyycKmnsbcRcSiTOwVo5JIQriD9jwc+ZrOBDtGVLx5d0Df9fT+tsB5ikguWXCiHvESSuIzapmB0F6F4yUj5AWeojAM1NVcnPGx0OqNEhe5qoLlk2TUpnnRAC0gvgEna/4GO/vWdvHArPuZLJCcRie3Tzvi9O0+j8bsCBsxtgixdEZIceBywtJCFDQNWPBYtHBPMrAF0rfs/DHJGPJGmhYdnC5y/4hPbvbffy/P9GnQNnN8AaGgxfMK+JYydf5Jh8hicGX+f3ttXy500fcs757wkp9oODa/CBOUYh2GNSad3ILU11o85ZvwOPA2feBguHsykisygUCHojijhRCrUdh/d3HL85rXUqWj5fsfgxM90AOgHgzKrHB0112T/gO6XBllZ/fuNeHHB65Yx2Rjg8lmjsBdI1l0NBz2XDOfD5pkgtxtmujdLtpEOHRFHxHwGIekNiG4X0R1RRMXS1FlOHKMDPg+zX4GECYDQJmJ1NhSWTqeqdA7Y/P40uB04fwMLhgNIZ3zCGbhSs82B4TyDDQWuO2ylyQlh12ebGZkDxCTrMHbJaFq7cqKu2P+FVHSxPxusOHaO90pVxaSXIQWeTgkpPh2vpA2ywfEyj3igD7H5Jua9PoJC8Ekv8Q4BosWCrqmwaUPtZ4AUhec7Bw9Vou1oWFX/XsPgR8neQ7DgANRqzlPpMbZmSZPtYEsbaYPHEMgNSc3yfbfyCEeWAHFFqPYnlvTZDBtW3ESL4LYCSj+IEuHpWHNTvIKympZL4JXgmjyoz5usULsnpt2UoCoS5F0FGJucJFxPSsxNu/Tb3C9PnQJLx6dPqRSEggjMgOtYBXJ4a7FVhOBmABjNfw2T+VWj9CBWUfK0PMpJi0fNIqFutKu6qw9QOZ9I6EH46DRwYXRXpIDCAAGeXehrJCTFNBmqvE8KsFEUrbtKkNxAHDpI82UYxFKnWSxET+w7QeGFXt0wuxnI4IxL7HDaYn04DB0YVYLEoHXAc8TYsoEIs9GhMBxqTp4D0Oink9Uy6SpjQTlZtUwGuIsi6mad0KugIRtF4vLb8SMK3OKXY/zHyHBgtgAnKX7FYCTFbSPoNGfNNDN2GIUagP6ttzUcASDYepuITV39McDgpjN/hpEWPX90Syj8B6GzbUUF7t678xwQHRscGyy++ClH0nxnJd8Q4CrUkf4dFhdQYKIm9WPnt/dRqh8G+U7Fzs2TxFzjg/p9uZ479NEMR4h8wBSt0KFjZf0W/dCQ5MAISpcdwCoovxu2GuyAt1sK43itYXeco90GXnRKs8GTU7g1qQRpgKQd4/gOB1Ua0/R3aTk9VFy6gZMlZrqYmKbgZNpWVRmjSX0Ix0044j1vovS37+qt51pXNvyZEmcctX+GjxyJ0ePIJqn8tQrm5QRLjJ4LbAXjfMeqYdNTLP80THEmACQqvmiyM+wPB5tL4PMQMTPD6aCTjQRmMlSMPkXSywOmeGIB8GUrrl65xXSHV3wIMfYUfxoD2UiPEs0rxTtheltYA4ErUMPykFmJn9477fV5SPE85chn83xxsjCAUMDaGiWFs7cbwduK23VRT09YvjVEvvF9S5qalCNs8aMfIEeddM+7oE+i2ikKTLlCsNximWcIRe5Vz7J8QNHx/1IfUo4ORA1hubkBq97tYhOXow9pHSGxvOMyRgcg3AKJXIbwuhMCZDmbEiyVYY/in8AB/paSzBNLuDridl3syKV4j9f/WsCe6InVhr1xcPKRNiumNaFVZS6/Snhnh8BRpgndDndpQyFyMxQZlBcbZWdOVQuwjkbXJFJT8mqrfKessOO3fpbWC6mU2C3MxhhjECHGLlzLtOBxDmUaKQsx9HsrGs8B57xlIvdXVcAZhxXQocx4mdwtsHXujNJkYUXOh7tQxUwfV9joWbBcK7TVmeHx8o3FjD2PB1rDRG/D7T1AO1I1YspH+fZrk96Ins+vw3M8BN6RB0YpLpc54BAuCC4ych/p2sXpKSLspZ8NPuAWoe4AKi+1B+hlMuD+JaFBi03btgsSA4gaENRDOUBoZCZZ57BxJ6mas3+QUALHR+wXSkesNqycDQr9qtMwJKFPT4ZKSAefvsex2kaAWR5QPGmD/GOjYQNlqN1W91v9N1vw3L4LjcDuAU+oNwx6KMjfjq86QTFxS5AAkLOJqYhbGG0LZQtiOYaDWHqj7KQUH0gfYqlUOHXHPI8k3YWFS04tfZf6OIp2v2bwOM/1glOQdUvEVaIMFs6p0BJMFBxH0Bz2kq8p+PyDl8CqoxZg9EbCnDsCP9Tj5FQDuKe26W+nD8s9RBhsz7LAZsxjBt6+izk2o+WGAxLN+0LZvDqcGRN/1e5ccaJsig4EiOHfWGO5dnszJxKJdjXVaBU9QA1gAlXeFJlljJJ4sOIgqpRG/1E7704MhqUw77D6nBAY9rhIRQiHiY9bqb3TN9EaijTpBgxOH6ztNbunHlNHyn5C8brTqikNE73R2I6m0VNDGjZYRVh17oKTMTEVTp8aQb/M6mdRZxtTa6u0I0LdStrMcj70S6t0vyNpeVSccfOJKvFe1IWVIbByFMTLGyN3GPiQifVVOH2Ch0EywZHm/bEn2bhk5Jvlz5J+gsv4AjD2gd25/eZDUEfR3VmL8S7y1FaIFh/P3QI3jOk8XuE4lVbvRCq3meGYXuEjll6zn3ftnyvzl1W5o7A5yT8yUWt5DR2NX0ZHmfzG5K5+hxTn76aN92RQUi6Smm+hYdC0EeDbG/ZYoKnncbTPltKus9dQOAdRlyzJxMXOJojfu4TpaJsbTp9gQv4XzdNgzwPqDZQ9iXT8Li2fhhYUrjebr6GhkAR3bVy8Llj+ljakgfeILqq1NWzinDTBY5DMwwYIBpFfXnEbtAaiCqVumDW8g9+jgPbuLL57OLs1D8wkYWzvu8u9xP9j+Np6HsmR24+Asgf8KQqtEC7lJuu07hHGuBgiWoczKssVOiGdRffNCDsjbQfx6r4tEL+DhjczmMjmOXzDXzL+LXqu3DornlIQKls3XkcC3DJnvJ6rbowh447QUWgEOE0aPDgadlq6cqCRfBRr3QenMQ0vr7dvhXIiY0bVKySpSE+7VK1Zsp7JeYB90N7ZiegBDMA8TnInBnTe09RjSGAdTGfFZikLvfp/GcDVVDH7nBUxoFu42TvAWjuHme8dQ1KkWB9N3zzoG3rAFVT5onusV2vUnakXoYwGAdAXGer23Ib0wjbaxY291kQcPXJSqz6dv1blTN1NtxWG65JLJsWjgWuyeOwEA7CJLi0/iOYrnDPw4N765vT5sP/2n3FXjHRm5BK/x/RrtEIxFfM/QJ2jdiM1g1zIXY7wIhsbdTrs4AZ2dFNH9U05ZmmaYYioCpwKDYnvOeAaTOAAmPUyu/GSoV6uhHmwUHAvlLVAbdvS+fiZiK6X69GjCU5AxHaDYh3E9hk34AkBX7mguw+XHCizsHkjKt4wRC027yA6yOwdxtn9GGxyrIazD4iZSAS+WqCJqORbcXvkOeeBi8RNjZKEx489FwHkleP8QAJoYfo9hpPoZiM7HbrwZRRmghz0g/s6wc61uy77OUPBPQe9elHUAyyW4fbwMqjmt+FlaEiwY1JNcG0331ibVbE5DnoDDgJc5guw80hFshdU7xCR4DLhs351EQ+ECECd7USgtVdTw+QxlaDVp7PPOhGMFoajR3XHlNhjfnhD0ikAL/94TLt/n1pS9ZfOsSPTEYjjcRCb0HNXMgHMQt/E6IN1U0coyABFeNS8BoJZShgkQPHQ+Fl0EGOSjOewhsR9+xaO08104HxhpaWm1+XR/NmzGWz0ADmIhFKlZiEdebt8jhfAqxxndJqrZthf0CPSaMva0PNoRv5wwA+SWBKKBOdDVgz8B8Qgl/0sLYIbdCYgQT0pyPEn49D2xjV7v7Kja0jCsPgVHcAExHqeHFYUdnLyc2EnQemzZbh5U3OPoC3W6UgzS5PeUW1tOtRYASJ4ao4NAW4VeNHMr1XTVjT9UVloA9wIxQATDXhwCuBRoZFEEHraGXcjQEIImIu8IpN8W0tK29WwzjyAGFSc8wP9WWkE94krcbAwyflzH3IRNM08UlGSQ1op2N5so6xCOxVrRJ05AxAwW2gbOzwzAMGlcSaas5NYdYJIjXexJHWrB19bhkhYGL5VAJVhk4DMWpwo5ydVLUA01Yt0nQgBxBJLCAsxuTIlFAJygVDMmnsoCZpxRysNw+T2hlaCS/LISsa4uk9T4LCdGi42ii9DBJSCCmKClCdomIEIcmYDD2SwY3sjlKBlRRxmx1DST1Pt+Gts2ntygPQ/2QImjMBvPw/sOWhPuVkGq4R0GqxFw1GffnRCE9xc8O69vmgOUpCXBWCm8lGFC3toM0NFoFYNTB6TmHcPlumtMI2zs49itdog416MFibHajDhwrLuee3E1BQN3o9pYyII1KLgI5fYoKVU6FXDda8BoV3XNq/FXgO4BNMMAFxLg5X3hf9ws6azO7ECaJmKFuLqL5xPUhlPV4aaIdODp2j8ME6fAEpLKeqGw/aDu8d0pnXFy4d1G3mVIHRxud7ZdWgDDjsKA7GfAOVvOYVYD1hvaXGC04LbsIU3BhqE17FZ70XvNon7Fp8g5jo+VxouoqCSPQm7dKQ5D7fstWIF/sy2dwuIxAMd8zKkvgNlqvVPeZXNkVH8bcLJ/CQjqj0/iGXE7AUUqJwJcxcibg28vwTHAwhsAzlt3Ky/H0DhYTcNNUW6nDBG/AWKXjcxjhvm/gKX9FFAKb2rBSIBFZxM8EDoebKNdV6D+8B3J9AAGDgA03huM3qB6/ifEblxteRx13gCPSnD0cguercHaTxJtIFoNs+jn2Mt4L1KsAza/AubCFojPPdlYtAG2LVy1BeGFYaaNuItWKKxndwlUEcILnKPY3Ks7nNtAsX2YVFM2k8p8BQXrPaAIudto9y/hPTbwlDHHqNVcJozJAYrmdjaOOKIVLyTD5rJs9mzD2RQLeWjrrAPeJMRfV07fD+7hE4KmHYAORvSBHRj55wel7Ih+sC1x1pqq6eBDiqlapwUwMCSCoGLEk7jY0skkItiFTxmtfgoPpSGRX2UKVzwPkH0Pk7sVefZYpkcS9qbFY1xd9gt8251q5fbrlL98LdQY7pnBi+uesMdQLS0Rbslp6WySJhoGrTDW0qrJdTCCPjL5K5+mic6eFH/yCYHJId76yFszjkTbHNA/BzNrgYR4nE4erKb6+og3paKVFjgB77nzv6B7lKI4aDdk+Ql+iRVkXOuEeLyhxsZxitU0CPJ4oLSzXapv6wygL1EwvQGPjRBRc1kiik/mGXiPu7vZi/FTA/sm/Nixben+XbW0AEYiAB2urWrpnqzh+yJiNI91ub+dpVVlfzTh5U9IVrDb+HZ8OkvwjVgW038bbn0kkZksdKJvYQNjr8rZwNzcrkbWmBbe1Z+urGE9VG45aIpWvISXg89H+xswLruAG5TgZXwsViYKi/ciD46AGAcpdx5AfwPGYeN/eBykxgqEYEtDOFtFx5wBVTSLJk8GMGDyZZ1YJI2257RWuifnXbE2Iore2IPh1CM/F588SPTbZGHxG0LKiI7walReH28yuHG42jThZsurULt/jXHkoP2dqr55mi667H1CoXIo10RpPdA+i465D+vZq56jhuH/8b60ACYd97jR4lT1JMRhOFb/S/NnvE8fgCU9U2XFh6Jo5WZgax2K4u4yHrCkFcrwJpPqlqh9g7uw+GMswFNYoPvAmDhVQR14aTtuU/TsZ6i/swIV5ogL/OBKjpAIbHqafw36sgY9VIqIoW84NVZyJfqH3QbT+xhXzegyzPvstvLlk1RU3IKJHkGdaaD75yKq5uK6MyL/HrDPx8a0Ur2LuKWlBe+QkjajXW5i3j+AYfJnpA2MddwQZmGlKUIcDHtwECBrn7DXZLc+DW3wVVg4FmAANochsZtgxkgYtbOxB2z4yXafRxOjW6mBPrM/hpM8KsNpaNtEY2yZhUNhz/OxTMbSi11aqKZuIhfZpyS4J8aGFmrjuVhJBEvhxdUHQk7dKTW7/5CRo5j4H5BlpYDXFyRaO9xqGxdKP9m/fDjReZeNcxfA9ROMCUz1VL3ty/p6GegZ/LJSCyoL84QU+IXR5ofJIKudC6M+IJPCMkVk/G2UbfbKibOtN4rNuBbzmQZazwMs/4gyCzDbZzxVVnyCSPsL2IBo68W/rFCYh89M1KzC/H8OJ+Fdjye4AenZZF5LlOKqq2UXUjLf3tfvcGpxwfPrqGvXwNqZ9h5fIb4hQe2fVfA27ZMIWmykqvIm5A87pSXByIl+Id3Q29j2ORgs7AcbI+KtzO6n/Y0IrtFncLafBGAOegxheDdEb7aPk819tps794TedaBGyeivUAdnaAQSeqdDTk1yNfpsPbiC+J/X3ItV+RHlLft36aj1AL4NR8Djg8dtQwWw+wCjNyF2XqGqss6d7YkOls52SIUD4MJR0Oi9WarL3zdFl/1Mkm4QQhXDDrMnCM3A7G+0ad1CYsJCJQzABlss4ML0uN9DB1Wt3s55b31TKG1DG3Mg0exO/kBr8SKN0XWqQ+2CM38I10Jq0cCzSV0VO4z3PTZDwtdgR+5H1NQKgniq3XICD+UmvAp/M8T9FtbhUvzOxNxcqOND8B+fJZGxjSo32xCGn3wO+BzwOeBzwOeAzwGfAz4HfA74HPA54HPA54DPAZ8DPgd8Dvgc8Dngc8DngM8BnwM+B3wO+BzwOeBzwOeAzwGfAz4HfA74HPA54HPA5wD9H080+gDZpolWAAAAAElFTkSuQmCC;" parent="1" vertex="1">
          <mxGeometry x="631.52" y="524" width="152" height="60" as="geometry" />
        </mxCell>
        <mxCell id="Q7YYRU22pN_NfC26AKfc-3" value="" style="shape=image;verticalLabelPosition=bottom;labelBackgroundColor=default;verticalAlign=top;aspect=fixed;imageAspect=0;image=https://miro.medium.com/v2/resize:fit:700/1*-uckV8DOh3l0bCvqZ73zYg.png;" vertex="1" parent="1">
          <mxGeometry x="414" y="471.14" width="207.33" height="88.86" as="geometry" />
        </mxCell>
        <mxCell id="Q7YYRU22pN_NfC26AKfc-4" value="" style="shape=image;verticalLabelPosition=bottom;labelBackgroundColor=default;verticalAlign=top;aspect=fixed;imageAspect=0;image=https://res.cloudinary.com/practicaldev/image/fetch/s--uB24xuuz--/c_limit%2Cf_auto%2Cfl_progressive%2Cq_auto%2Cw_880/https://dev-to-uploads.s3.amazonaws.com/uploads/articles/athltygzo40y5rkxv5lf.png;" vertex="1" parent="1">
          <mxGeometry x="489.08" y="915" width="135.38" height="40" as="geometry" />
        </mxCell>
      </root>
    </mxGraphModel>
  </diagram>
</mxfile>
